<svg version="1.1" xmlns="http://www.w3.org/2000/svg" xmlns:xlink="http://www.w3.org/1999/xlink" width="184.5101" height="66.70073" viewBox="0,0,184.5101,66.70073"><g transform="translate(-196.68113,-195.43496)"><g data-paper-data="{&quot;isPaintingLayer&quot;:true}" fill-rule="nonzero" stroke-miterlimit="10" stroke-dasharray="" stroke-dashoffset="0" style="mix-blend-mode: normal"><path d="M265.01462,196.93686c28.33155,0.61737 52.35164,9.46903 61.54643,21.30227c5.67377,-11.52463 19.67649,-19.53115 35.91052,-19.17847c6.24428,0.13607 12.07021,1.51879 17.21966,3.80148c-12.38049,4.83414 -20.9956,14.98943 -21.25629,26.93468c-0.26265,11.94848 7.9012,22.4689 20.06173,27.84126c-5.24363,2.05338 -11.12712,3.12182 -17.36719,2.9861c-16.23403,-0.35268 -29.87494,-8.91937 -35.04175,-20.66419c-9.70623,11.42905 -34.08948,19.15644 -62.40839,18.54011c-36.54655,-0.79793 -65.72097,-21.95034 -65.49693,-32.19635c0.20494,-9.40238 30.29149,-30.16349 66.84,-29.36879z" fill="#aea8bb" stroke="#010101" stroke-width="3" stroke-linecap="butt" stroke-linejoin="round"/><path d="M326.16104,218.03913c5.67377,-11.52463 19.67649,-19.53115 35.91052,-19.17847c6.24428,0.13607 12.07021,1.51879 17.21966,3.80148c-12.38049,4.83414 -20.9956,14.98943 -21.25629,26.93468c-0.26265,11.94848 7.9012,22.4689 20.06173,27.84125c-5.24363,2.05338 -11.12712,3.12182 -17.36719,2.9861c-16.23403,-0.35268 -29.87494,-8.91937 -35.04175,-20.66419c-4.11199,4.84186 -10.85814,9.01936 -19.42174,12.17955c4.71852,-4.23111 7.0791,-11.11344 4.60991,-17.20425c-1.10731,-2.73142 -3.115,-5.7732 -3.90376,-8.61504c-1.19554,-4.3074 -0.62396,-9.54495 -2.08076,-13.53093c-0.95837,-2.62221 -0.57903,-5.98159 -0.78807,-8.84902c9.95335,3.71436 17.68331,8.66918 22.05773,14.29885z" fill="#ba0000" stroke="#010101" stroke-width="3" stroke-linecap="butt" stroke-linejoin="round"/><path d="M357.3,230.3c0,0.73741 1.38667,5.51592 1.95738,8.44447c0.43358,2.22485 3.98818,4.95916 -0.3297,4.49679c-15.53875,-1.66391 -54.20672,-16.74126 -81.92769,-16.74126c-45.56349,0 -74.3,9.91371 -74.3,6.6c0,-0.8729 -6.90634,-7.94313 -2.39992,-10.22467c12.60083,-6.37966 44.13883,-12.37533 77.69993,-12.37533c45.56349,0 79.3,16.48629 79.3,19.8z" fill="#2ff1fd" stroke="none" stroke-width="NaN" stroke-linecap="butt" stroke-linejoin="miter"/><path d="M223.45407,205.23969c11.44617,-4.98783 25.89584,-8.66142 41.57618,-8.31766c28.31793,0.61795 52.31634,9.46529 61.51724,21.30666c5.67377,-11.52462 19.69547,-19.50417 35.92852,-19.14987c6.24428,0.13607 12.0556,1.4591 17.20506,3.74179c-12.38049,4.83414 -20.99404,15.00142 -21.25571,26.94829c-0.25907,11.94623 7.89081,22.47144 20.05135,27.8438c-5.24201,2.05436 -11.11748,3.13872 -17.35917,3.00201c-16.23305,-0.35429 -29.85435,-8.95329 -35.02117,-20.69811c-9.70687,11.42646 -34.10667,19.15927 -62.42298,18.5423c-11.82084,-0.25813 -22.81689,-2.63668 -32.35115,-6.095c6.14142,0.94655 12.66635,1.52695 19.49281,1.67596c34.79678,0.75714 63.28885,-10.04149 63.59514,-24.1159c0.30888,-14.07505 -27.69395,-26.11244 -62.49073,-26.86957c-10.24018,-0.22271 -19.88337,0.6284 -28.47323,2.19822z" fill-opacity="0.3137" fill="#010101" stroke="none" stroke-width="1" stroke-linecap="butt" stroke-linejoin="miter"/><g data-paper-data="{&quot;index&quot;:null}"><path d="M228.62138,208.0356c8.54123,0 15.46304,6.92484 15.46102,15.46606c0.00202,8.54023 -6.9198,15.46506 -15.46102,15.46506c-8.54325,0 -15.46204,-6.92483 -15.46204,-15.46506c0,-8.54124 6.91879,-15.46606 15.46204,-15.46606z" fill="#ffffff" stroke="#000000" stroke-width="2.7096" stroke-linecap="round" stroke-linejoin="round"/><path d="M224.75612,221.07555c2.84708,0 5.15435,2.30828 5.15435,5.15435c0,2.84708 -2.30727,5.15536 -5.15435,5.15536c-2.84607,0 -5.15133,-2.30828 -5.15133,-5.15536c0,-2.84607 2.30526,-5.15435 5.15133,-5.15435z" fill="#000000" stroke="none" stroke-width="1" stroke-linecap="butt" stroke-linejoin="miter"/></g></g></g></svg>